<?xml version="1.0" standalone="no"?><!DOCTYPE svg PUBLIC "-//W3C//DTD SVG 1.1//EN" "http://www.w3.org/Graphics/SVG/1.1/DTD/svg11.dtd"><svg t="1737433129730" class="icon" viewBox="0 0 1024 1024" version="1.1" xmlns="http://www.w3.org/2000/svg" p-id="8498" xmlns:xlink="http://www.w3.org/1999/xlink" width="200" height="200"><path d="M513.1 63.8c-247.3 0-447.8 200.5-447.8 447.8s200.5 447.7 447.8 447.7 447.7-200.5 447.7-447.7c0-247.3-200.4-447.8-447.7-447.8z m116.4 254.4l52.7-52.7c17.6-23.4 52.7-23.4 76.2 0 23.4 17.5 23.4 52.7 0 76.1l-52.7 52.7c-17.6 23.4-52.7 23.4-76.2 0-23.4-17.5-23.4-52.7 0-76.1zM161 529v-35.2c0-23.4 17.6-35.1 35.1-35.1h117.2c17.6 0 35.1 17.6 35.1 35.1V529c0 23.4-17.5 35.2-41 35.2H196.1c-17.5 0-35.1-17.6-35.1-35.2z m234.2 175.7l-52.7 52.7c-17.6 23.4-52.7 23.4-76.1 0-23.4-17.5-23.4-52.7 0-76.1l52.7-52.7c17.6-23.4 52.7-23.4 76.1 0 23.5 17.6 23.5 52.7 0 76.1z m0-310.4c-23.4 23.4-58.6 23.4-76.1 0l-52.7-52.7c-23.4-17.6-23.4-52.7 0-76.1 17.5-23.4 52.7-23.4 76.1 0l52.7 52.7c23.5 17.6 23.5 52.7 0 76.1z m169.9 433.4c0 17.6-17.6 35.2-35.1 35.2h-35.1c-17.6 0-35.2-17.6-35.2-35.1V716.4c0-17.6 17.6-35.1 35.2-35.1H530c23.4 0 35.1 11.7 35.1 35.1v111.3z m0-521.2c0 17.6-17.6 35.2-35.1 35.2h-35.1c-17.6 0-35.2-17.6-35.2-35.2V195.2c0-17.6 11.7-35.1 35.2-35.1H530c23.4 0 35.1 17.6 35.1 35.1v111.3z m193.3 450.9c-17.6 23.4-52.7 23.4-76.2 0l-52.7-52.7c-23.4-17.6-23.4-52.7 0-76.2 17.6-23.4 52.7-23.4 76.1 0l52.7 52.7c23.5 17.7 23.5 52.8 0.1 76.2zM863.8 529c0 17.6-17.6 35.2-35.2 35.2H717.3c-17.6 0-35.1-17.6-35.1-35.2v-35.1c0-17.6 17.6-35.1 35.1-35.1h111.3c17.6 0 35.1 11.7 35.1 35.1l0.1 35.1z m0 0" p-id="8499"></path></svg>